/vscmnt/brussel_pixiu_data/_data_brussel/112/vsc11236/PredSimResults/SUBJ10opt3D/trackIG/worker_04.mot
version=1
nRows=6
nColumns=50
inDegrees=yes
endheader
                time	         pelvis_tilt	         pelvis_list	     pelvis_rotation	           pelvis_tx	           pelvis_ty	           pelvis_tz	       hip_flexion_r	     hip_adduction_r	      hip_rotation_r	        knee_angle_r	       ankle_angle_r	         mtp_angle_r	       hip_flexion_l	     hip_adduction_l	      hip_rotation_l	        knee_angle_l	       ankle_angle_l	         mtp_angle_l	    lumbar_extension	      lumbar_bending	     lumbar_rotation	 ercspn_r/activation	 intobl_r/activation	 extobl_r/activation	    abd_r/activation	    add_r/activation	hamstrings_r/activation	bifemsh_r/activation	glut_max_r/activation	iliopsoas_r/activation	rect_fem_r/activation	  vasti_r/activation	gastroc_r/activation	 soleus_r/activation	tib_ant_r/activation	 ercspn_l/activation	 intobl_l/activation	 extobl_l/activation	    abd_l/activation	    add_l/activation	hamstrings_l/activation	bifemsh_l/activation	glut_max_l/activation	iliopsoas_l/activation	rect_fem_l/activation	  vasti_l/activation	gastroc_l/activation	 soleus_l/activation	tib_ant_l/activation	
          1.27022524	         -1.91090107	         -1.79217255	          7.83012517	          1.14320272	          0.83522501	         -0.01554577	         26.26409883	         -0.65210074	         -5.52365641	         -8.95952597	          2.01122017	          0.24901861	        -14.61319083	         -2.08585200	         -1.51913534	         -6.62071960	         10.58524239	         21.53518789	         -5.47158572	         -0.75627315	         -5.29040794	          0.10864543	          0.17239789	          0.00999999	          0.00999999	          0.16821163	          0.08480680	          0.15316800	          0.02398448	          0.08038256	          0.00999999	          0.00999999	          0.01468227	          0.01188411	          0.24581550	          0.07292928	          0.00999999	          0.00999999	          0.06822848	          0.00999999	          0.01000002	          0.17344238	          0.00999999	          0.26413122	          0.00999999	          0.00999999	          0.25289613	          0.23760695	          0.02155689	
          1.28292750	         -1.96301252	         -1.70856039	          7.78626990	          1.15694951	          0.83394499	         -0.01482344	         25.94120461	         -0.52263420	         -5.27350985	         -9.99058172	          1.81153773	          0.24187943	        -14.78518537	         -2.13607052	         -2.01546212	         -7.98614281	         10.16631448	         22.98838080	         -5.20882898	         -0.36522195	         -5.66295323	          0.09336069	          0.17280144	          0.00999999	          0.00999999	          0.13882236	          0.07181134	          0.12640709	          0.03623795	          0.06633843	          0.00999999	          0.00999999	          0.01211704	          0.00999999	          0.28412193	          0.07943240	          0.00999999	          0.00999999	          0.05630787	          0.00999999	          0.01000004	          0.14313921	          0.00999999	          0.21798325	          0.00999999	          0.00999999	          0.23149843	          0.23234254	          0.01779055	
          1.29562975	         -2.00867749	         -1.63700117	          7.69120041	          1.17091321	          0.83293706	         -0.01399043	         25.55270257	         -0.38737264	         -5.05636717	        -10.88672268	          1.46952482	          0.23661565	        -14.86896964	         -2.20698207	         -2.53682040	         -9.53311274	          9.59272564	         24.44912212	         -4.93323316	          0.05655521	         -6.01867330	          0.09676374	          0.14261025	          0.00999999	          0.03164355	          0.16213789	          0.06829009	          0.10432174	          0.04525116	          0.05474804	          0.00999999	          0.01731044	          0.01000000	          0.00999999	          0.32357131	          0.09536091	          0.00999999	          0.00999999	          0.04646998	          0.00999999	          0.01000000	          0.11813049	          0.00999999	          0.17989807	          0.00999999	          0.00999999	          0.20561258	          0.22288491	          0.01468226	
          1.30833200	         -2.04743435	         -1.56816839	          7.54336998	          1.18498977	          0.83230341	         -0.01304294	         25.14157999	         -0.25487769	         -4.94564041	        -11.74014324	          1.08653852	          0.22777413	        -14.81756936	         -2.29057384	         -3.08667489	        -11.32729226	          8.84419515	         25.88225233	         -4.65570779	          0.49374543	         -6.34863488	          0.09331556	          0.11769395	          0.00999999	          0.05129833	          0.17225823	          0.06794431	          0.08609505	          0.03734506	          0.04518268	          0.00999999	          0.03783093	          0.00999999	          0.00999999	          0.35826647	          0.10378331	          0.00999999	          0.00999999	          0.03835093	          0.00999999	          0.01000008	          0.09749119	          0.00999999	          0.14846699	          0.00999999	          0.00999999	          0.16968876	          0.21012705	          0.01211703	
          1.32103425	         -2.07907171	         -1.50371934	          7.35110978	          1.19910052	          0.83211411	         -0.01199645	         24.69998365	         -0.12484963	         -4.93134535	        -12.56146028	          0.80593764	          0.21665555	        -14.59247749	         -2.39360726	         -3.66952702	        -13.41831869	          7.92152133	         27.21009840	         -4.38170312	          0.94352906	         -6.65013331	          0.08858540	          0.09713092	          0.00999999	          0.07321455	          0.16016435	          0.06896594	          0.07105286	          0.03082028	          0.03728854	          0.00999999	          0.06054647	          0.00999999	          0.00999999	          0.37017245	          0.12019872	          0.00999999	          0.00999999	          0.03165040	          0.00999999	          0.01792900	          0.08045791	          0.01728305	          0.12252742	          0.00999999	          0.00999999	          0.14004141	          0.19179199	          0.00999999	
          1.33373650	         -2.10429399	         -1.44291412	          7.12170927	          1.21314793	          0.83244562	         -0.01087118	         24.21699623	          0.00711792	         -4.96973247	        -13.33964017	          0.73124817	          0.20583311	        -14.16544566	         -2.51908756	         -4.30790555	        -15.82788348	          6.82489523	         28.31146441	         -4.11842743	          1.40114965	         -6.92356062	          0.08085243	          0.08016059	          0.00999999	          0.08538646	          0.16036592	          0.07143551	          0.05863879	          0.02841795	          0.03077363	          0.00999999	          0.07836122	          0.00999999	          0.00999999	          0.36322499	          0.12730319	          0.00999999	          0.00999999	          0.02612057	          0.04501335	          0.03857302	          0.06640062	          0.01468225	          0.10111991	          0.00999999	          0.01249376	          0.11557392	          0.17270903	          0.00999999	
